{
	"asset":{
		"generator":"Khronos glTF Blender I/O v3.6.27",
		"version":"2.0"
	},
	"scene":0,
	"scenes":[
		{
			"name":"Scene",
			"nodes":[
				165
			]
		}
	],
	"nodes":[
		{
			"name":"Mesh"
		},
		{
			"name":"Mesh.001"
		},
		{
			"name":"Mesh.002"
		},
		{
			"name":"Mesh.003"
		},
		{
			"name":"Mesh.004"
		},
		{
			"name":"Mesh.005"
		},
		{
			"name":"Mesh.006"
		},
		{
			"name":"Mesh.007"
		},
		{
			"name":"Mesh.008"
		},
		{
			"name":"Mesh.009"
		},
		{
			"name":"Mesh.010"
		},
		{
			"name":"Mesh.011"
		},
		{
			"name":"Mesh.012"
		},
		{
			"name":"Mesh.013"
		},
		{
			"name":"Mesh.014"
		},
		{
			"mesh":0,
			"name":"Mesh.015"
		},
		{
			"name":"Mesh.016"
		},
		{
			"mesh":1,
			"name":"Mesh.017"
		},
		{
			"name":"Mesh.018"
		},
		{
			"name":"Mesh.019"
		},
		{
			"name":"Mesh.020"
		},
		{
			"name":"Mesh.021"
		},
		{
			"name":"Mesh.022"
		},
		{
			"name":"Mesh.023"
		},
		{
			"name":"Mesh.024"
		},
		{
			"name":"Mesh.025"
		},
		{
			"name":"Mesh.026"
		},
		{
			"name":"Mesh.027"
		},
		{
			"mesh":2,
			"name":"Mesh.028"
		},
		{
			"name":"Mesh.029"
		},
		{
			"name":"Mesh.030"
		},
		{
			"name":"Mesh.031"
		},
		{
			"name":"Mesh.032"
		},
		{
			"name":"Mesh.033"
		},
		{
			"name":"Mesh.034"
		},
		{
			"name":"Mesh.035"
		},
		{
			"name":"Mesh.036"
		},
		{
			"name":"Mesh.037"
		},
		{
			"name":"Mesh.038"
		},
		{
			"name":"Mesh.039"
		},
		{
			"name":"Mesh.040"
		},
		{
			"name":"Mesh.041"
		},
		{
			"name":"Mesh.042"
		},
		{
			"name":"Mesh.043"
		},
		{
			"name":"Mesh.044"
		},
		{
			"name":"Mesh.045"
		},
		{
			"name":"Mesh.046"
		},
		{
			"name":"Mesh.047"
		},
		{
			"name":"Mesh.048"
		},
		{
			"name":"Mesh.049"
		},
		{
			"name":"Mesh.050"
		},
		{
			"name":"Mesh.051"
		},
		{
			"mesh":3,
			"name":"Mesh.052"
		},
		{
			"name":"Mesh.053"
		},
		{
			"name":"Mesh.054"
		},
		{
			"name":"Mesh.055"
		},
		{
			"mesh":4,
			"name":"Mesh.056"
		},
		{
			"name":"Mesh.057"
		},
		{
			"name":"Mesh.058"
		},
		{
			"name":"Mesh.059"
		},
		{
			"name":"Mesh.060"
		},
		{
			"name":"Mesh.061"
		},
		{
			"name":"Mesh.062"
		},
		{
			"name":"Mesh.063"
		},
		{
			"name":"Mesh.064"
		},
		{
			"name":"Mesh.065"
		},
		{
			"mesh":5,
			"name":"Mesh.066"
		},
		{
			"name":"Mesh.067"
		},
		{
			"name":"Mesh.068"
		},
		{
			"mesh":6,
			"name":"Mesh.069"
		},
		{
			"name":"Mesh.070"
		},
		{
			"name":"Mesh.071"
		},
		{
			"name":"Mesh.072"
		},
		{
			"name":"Mesh.073"
		},
		{
			"name":"Mesh.074"
		},
		{
			"name":"Mesh.075"
		},
		{
			"name":"Mesh.076"
		},
		{
			"name":"Mesh.077"
		},
		{
			"name":"Mesh.078"
		},
		{
			"name":"Mesh.079"
		},
		{
			"name":"Mesh.080"
		},
		{
			"name":"Mesh.081"
		},
		{
			"name":"Mesh.082"
		},
		{
			"name":"Mesh.083"
		},
		{
			"mesh":7,
			"name":"Mesh.084"
		},
		{
			"name":"Mesh.085"
		},
		{
			"name":"Mesh.086"
		},
		{
			"name":"Mesh.087"
		},
		{
			"name":"Mesh.088"
		},
		{
			"name":"Mesh.089"
		},
		{
			"name":"Mesh.090"
		},
		{
			"name":"Mesh.091"
		},
		{
			"name":"Mesh.092"
		},
		{
			"name":"Mesh.093"
		},
		{
			"name":"Mesh.094"
		},
		{
			"name":"Mesh.095"
		},
		{
			"name":"Mesh.096"
		},
		{
			"name":"Mesh.097"
		},
		{
			"name":"Mesh.098"
		},
		{
			"name":"Mesh.099"
		},
		{
			"name":"Mesh.100"
		},
		{
			"name":"Mesh.101"
		},
		{
			"name":"Mesh.102"
		},
		{
			"name":"Mesh.103"
		},
		{
			"name":"Mesh.104"
		},
		{
			"name":"Mesh.105"
		},
		{
			"name":"Mesh.106"
		},
		{
			"name":"Mesh.107"
		},
		{
			"name":"Mesh.108"
		},
		{
			"name":"Mesh.109"
		},
		{
			"name":"Mesh.110"
		},
		{
			"name":"Mesh.111"
		},
		{
			"name":"Mesh.112"
		},
		{
			"name":"Mesh.113"
		},
		{
			"name":"Mesh.114"
		},
		{
			"name":"Mesh.115"
		},
		{
			"name":"Mesh.116"
		},
		{
			"name":"Mesh.117"
		},
		{
			"name":"Mesh.118"
		},
		{
			"name":"Mesh.119"
		},
		{
			"name":"Mesh.120"
		},
		{
			"name":"Mesh.121"
		},
		{
			"name":"Mesh.122"
		},
		{
			"name":"Mesh.123"
		},
		{
			"name":"Mesh.124"
		},
		{
			"name":"Mesh.125"
		},
		{
			"name":"Mesh.126"
		},
		{
			"name":"Mesh.127"
		},
		{
			"name":"Mesh.128"
		},
		{
			"name":"Mesh.129"
		},
		{
			"name":"Mesh.130"
		},
		{
			"name":"Mesh.131"
		},
		{
			"name":"Mesh.132"
		},
		{
			"name":"Mesh.133"
		},
		{
			"name":"Mesh.134"
		},
		{
			"name":"Mesh.135"
		},
		{
			"name":"Mesh.136"
		},
		{
			"name":"Mesh.137"
		},
		{
			"name":"Mesh.138"
		},
		{
			"name":"Mesh.139"
		},
		{
			"name":"Mesh.140"
		},
		{
			"name":"Mesh.141"
		},
		{
			"name":"Mesh.142"
		},
		{
			"name":"Mesh.143"
		},
		{
			"name":"Mesh.144"
		},
		{
			"name":"Mesh.145"
		},
		{
			"name":"Mesh.146"
		},
		{
			"name":"Mesh.147"
		},
		{
			"name":"Mesh.148"
		},
		{
			"name":"Mesh.149"
		},
		{
			"name":"Mesh.150"
		},
		{
			"name":"Mesh.151"
		},
		{
			"name":"Mesh.152"
		},
		{
			"name":"Mesh.153"
		},
		{
			"name":"Mesh.154"
		},
		{
			"name":"Mesh.155"
		},
		{
			"name":"Mesh.156"
		},
		{
			"name":"Mesh.157"
		},
		{
			"name":"Mesh.158"
		},
		{
			"name":"Mesh.159"
		},
		{
			"name":"Mesh.160"
		},
		{
			"name":"Mesh.161"
		},
		{
			"name":"Mesh.162"
		},
		{
			"name":"Mesh.163"
		},
		{
			"mesh":8,
			"name":"Mesh.164"
		},
		{
			"children":[
				0,
				1,
				2,
				3,
				4,
				5,
				6,
				7,
				8,
				9,
				10,
				11,
				12,
				13,
				14,
				15,
				16,
				17,
				18,
				19,
				20,
				21,
				22,
				23,
				24,
				25,
				26,
				27,
				28,
				29,
				30,
				31,
				32,
				33,
				34,
				35,
				36,
				37,
				38,
				39,
				40,
				41,
				42,
				43,
				44,
				45,
				46,
				47,
				48,
				49,
				50,
				51,
				52,
				53,
				54,
				55,
				56,
				57,
				58,
				59,
				60,
				61,
				62,
				63,
				64,
				65,
				66,
				67,
				68,
				69,
				70,
				71,
				72,
				73,
				74,
				75,
				76,
				77,
				78,
				79,
				80,
				81,
				82,
				83,
				84,
				85,
				86,
				87,
				88,
				89,
				90,
				91,
				92,
				93,
				94,
				95,
				96,
				97,
				98,
				99,
				100,
				101,
				102,
				103,
				104,
				105,
				106,
				107,
				108,
				109,
				110,
				111,
				112,
				113,
				114,
				115,
				116,
				117,
				118,
				119,
				120,
				121,
				122,
				123,
				124,
				125,
				126,
				127,
				128,
				129,
				130,
				131,
				132,
				133,
				134,
				135,
				136,
				137,
				138,
				139,
				140,
				141,
				142,
				143,
				144,
				145,
				146,
				147,
				148,
				149,
				150,
				151,
				152,
				153,
				154,
				155,
				156,
				157,
				158,
				159,
				160,
				161,
				162,
				163,
				164
			],
			"name":"cadmapper-changhongjie-tianjin-cn",
			"scale":[
				0.0010000000474974513,
				0.0010000000474974513,
				0.0010000000474974513
			]
		}
	],
	"materials":[
		{
			"doubleSided":true,
			"name":"Material_0",
			"pbrMetallicRoughness":{
				"baseColorFactor":[
					0.9803921580314636,
					0.9803921580314636,
					0.9803921580314636,
					1
				],
				"metallicFactor":0
			}
		}
	],
	"meshes":[
		{
			"name":"Mesh_15",
			"primitives":[
				{
					"attributes":{
						"POSITION":0,
						"NORMAL":1
					},
					"indices":2,
					"material":0
				}
			]
		},
		{
			"name":"Mesh_17",
			"primitives":[
				{
					"attributes":{
						"POSITION":3,
						"NORMAL":4
					},
					"indices":5,
					"material":0
				}
			]
		},
		{
			"name":"Mesh_28",
			"primitives":[
				{
					"attributes":{
						"POSITION":6,
						"NORMAL":7
					},
					"indices":8,
					"material":0
				}
			]
		},
		{
			"name":"Mesh_52",
			"primitives":[
				{
					"attributes":{
						"POSITION":9,
						"NORMAL":10
					},
					"indices":11,
					"material":0
				}
			]
		},
		{
			"name":"Mesh_56",
			"primitives":[
				{
					"attributes":{
						"POSITION":12,
						"NORMAL":13
					},
					"indices":14,
					"material":0
				}
			]
		},
		{
			"name":"Mesh_66",
			"primitives":[
				{
					"attributes":{
						"POSITION":15,
						"NORMAL":16
					},
					"indices":17,
					"material":0
				}
			]
		},
		{
			"name":"Mesh_69",
			"primitives":[
				{
					"attributes":{
						"POSITION":18,
						"NORMAL":19
					},
					"indices":20,
					"material":0
				}
			]
		},
		{
			"name":"Mesh_84",
			"primitives":[
				{
					"attributes":{
						"POSITION":21,
						"NORMAL":22
					},
					"indices":23,
					"material":0
				}
			]
		},
		{
			"name":"Mesh_164",
			"primitives":[
				{
					"attributes":{
						"POSITION":24,
						"NORMAL":25
					},
					"indices":26,
					"material":0
				}
			]
		}
	],
	"accessors":[
		{
			"bufferView":0,
			"componentType":5126,
			"count":48,
			"max":[
				753573.9375,
				907969,
				14048.685546875
			],
			"min":[
				659978.4375,
				867769.4375,
				8048.68603515625
			],
			"type":"VEC3"
		},
		{
			"bufferView":1,
			"componentType":5126,
			"count":48,
			"type":"VEC3"
		},
		{
			"bufferView":2,
			"componentType":5123,
			"count":84,
			"type":"SCALAR"
		},
		{
			"bufferView":3,
			"componentType":5126,
			"count":122,
			"max":[
				336103.53125,
				871178.8125,
				14614.857421875
			],
			"min":[
				247884.546875,
				776130.375,
				2614.85693359375
			],
			"type":"VEC3"
		},
		{
			"bufferView":4,
			"componentType":5126,
			"count":122,
			"type":"VEC3"
		},
		{
			"bufferView":5,
			"componentType":5123,
			"count":228,
			"type":"SCALAR"
		},
		{
			"bufferView":6,
			"componentType":5126,
			"count":36,
			"max":[
				1031374.5625,
				829467.1875,
				27087.919921875
			],
			"min":[
				942862.5625,
				791948.75,
				9087.9189453125
			],
			"type":"VEC3"
		},
		{
			"bufferView":7,
			"componentType":5126,
			"count":36,
			"type":"VEC3"
		},
		{
			"bufferView":8,
			"componentType":5123,
			"count":60,
			"type":"SCALAR"
		},
		{
			"bufferView":9,
			"componentType":5126,
			"count":60,
			"max":[
				579073.9375,
				649342.125,
				22666.740234375
			],
			"min":[
				466907.28125,
				571473.75,
				10666.7412109375
			],
			"type":"VEC3"
		},
		{
			"bufferView":10,
			"componentType":5126,
			"count":60,
			"type":"VEC3"
		},
		{
			"bufferView":11,
			"componentType":5123,
			"count":108,
			"type":"SCALAR"
		},
		{
			"bufferView":12,
			"componentType":5126,
			"count":48,
			"max":[
				491884.15625,
				432849.625,
				25743.48828125
			],
			"min":[
				449983.90625,
				367972.34375,
				10743.48828125
			],
			"type":"VEC3"
		},
		{
			"bufferView":13,
			"componentType":5126,
			"count":48,
			"type":"VEC3"
		},
		{
			"bufferView":14,
			"componentType":5123,
			"count":84,
			"type":"SCALAR"
		},
		{
			"bufferView":15,
			"componentType":5126,
			"count":24,
			"max":[
				890918.6875,
				181507.078125,
				27387.140625
			],
			"min":[
				829359.9375,
				155230.546875,
				9387.140625
			],
			"type":"VEC3"
		},
		{
			"bufferView":16,
			"componentType":5126,
			"count":24,
			"type":"VEC3"
		},
		{
			"bufferView":17,
			"componentType":5123,
			"count":36,
			"type":"SCALAR"
		},
		{
			"bufferView":18,
			"componentType":5126,
			"count":164,
			"max":[
				1012689.375,
				512448.9375,
				20110.861328125
			],
			"min":[
				861462.625,
				452815.25,
				8110.86083984375
			],
			"type":"VEC3"
		},
		{
			"bufferView":19,
			"componentType":5126,
			"count":164,
			"type":"VEC3"
		},
		{
			"bufferView":20,
			"componentType":5123,
			"count":294,
			"type":"SCALAR"
		},
		{
			"bufferView":21,
			"componentType":5126,
			"count":98,
			"max":[
				925273.5625,
				532420.25,
				15729.27734375
			],
			"min":[
				820176.1875,
				439981.71875,
				9729.27734375
			],
			"type":"VEC3"
		},
		{
			"bufferView":22,
			"componentType":5126,
			"count":98,
			"type":"VEC3"
		},
		{
			"bufferView":23,
			"componentType":5123,
			"count":180,
			"type":"SCALAR"
		},
		{
			"bufferView":24,
			"componentType":5126,
			"count":1085,
			"max":[
				1020000,
				900000,
				13061.9140625
			],
			"min":[
				0,
				0,
				2120.960205078125
			],
			"type":"VEC3"
		},
		{
			"bufferView":25,
			"componentType":5126,
			"count":1085,
			"type":"VEC3"
		},
		{
			"bufferView":26,
			"componentType":5123,
			"count":6120,
			"type":"SCALAR"
		}
	],
	"bufferViews":[
		{
			"buffer":0,
			"byteLength":576,
			"byteOffset":0,
			"target":34962
		},
		{
			"buffer":0,
			"byteLength":576,
			"byteOffset":576,
			"target":34962
		},
		{
			"buffer":0,
			"byteLength":168,
			"byteOffset":1152,
			"target":34963
		},
		{
			"buffer":0,
			"byteLength":1464,
			"byteOffset":1320,
			"target":34962
		},
		{
			"buffer":0,
			"byteLength":1464,
			"byteOffset":2784,
			"target":34962
		},
		{
			"buffer":0,
			"byteLength":456,
			"byteOffset":4248,
			"target":34963
		},
		{
			"buffer":0,
			"byteLength":432,
			"byteOffset":4704,
			"target":34962
		},
		{
			"buffer":0,
			"byteLength":432,
			"byteOffset":5136,
			"target":34962
		},
		{
			"buffer":0,
			"byteLength":120,
			"byteOffset":5568,
			"target":34963
		},
		{
			"buffer":0,
			"byteLength":720,
			"byteOffset":5688,
			"target":34962
		},
		{
			"buffer":0,
			"byteLength":720,
			"byteOffset":6408,
			"target":34962
		},
		{
			"buffer":0,
			"byteLength":216,
			"byteOffset":7128,
			"target":34963
		},
		{
			"buffer":0,
			"byteLength":576,
			"byteOffset":7344,
			"target":34962
		},
		{
			"buffer":0,
			"byteLength":576,
			"byteOffset":7920,
			"target":34962
		},
		{
			"buffer":0,
			"byteLength":168,
			"byteOffset":8496,
			"target":34963
		},
		{
			"buffer":0,
			"byteLength":288,
			"byteOffset":8664,
			"target":34962
		},
		{
			"buffer":0,
			"byteLength":288,
			"byteOffset":8952,
			"target":34962
		},
		{
			"buffer":0,
			"byteLength":72,
			"byteOffset":9240,
			"target":34963
		},
		{
			"buffer":0,
			"byteLength":1968,
			"byteOffset":9312,
			"target":34962
		},
		{
			"buffer":0,
			"byteLength":1968,
			"byteOffset":11280,
			"target":34962
		},
		{
			"buffer":0,
			"byteLength":588,
			"byteOffset":13248,
			"target":34963
		},
		{
			"buffer":0,
			"byteLength":1176,
			"byteOffset":13836,
			"target":34962
		},
		{
			"buffer":0,
			"byteLength":1176,
			"byteOffset":15012,
			"target":34962
		},
		{
			"buffer":0,
			"byteLength":360,
			"byteOffset":16188,
			"target":34963
		},
		{
			"buffer":0,
			"byteLength":13020,
			"byteOffset":16548,
			"target":34962
		},
		{
			"buffer":0,
			"byteLength":13020,
			"byteOffset":29568,
			"target":34962
		},
		{
			"buffer":0,
			"byteLength":12240,
			"byteOffset":42588,
			"target":34963
		}
	],
	"buffers":[
		{
			"byteLength":54828,
			"uri":"data:application/octet-stream;base64,"
		}
	]
}
